<?xml version="1.0" encoding="utf-8"?>
<!-- Generator: Adobe Illustrator 22.1.0, SVG Export Plug-In . SVG Version: 6.00 Build 0)  -->
<svg version="1.1" id="Layer_2" xmlns="http://www.w3.org/2000/svg" xmlns:xlink="http://www.w3.org/1999/xlink" x="0px" y="0px"
	 viewBox="0 0 150.7 182.5" style="enable-background:new 0 0 150.7 182.5;" xml:space="preserve">
<style type="text/css">
	.st0{fill:#082257;}
	.st1{fill:url(#SVGID_1_);}
	.st2{fill:url(#SVGID_2_);}
	.st3{fill:url(#SVGID_3_);}
	.st4{fill:#3A98F4;}
	.st5{fill:#FFFFFF;}
	.st6{fill:url(#SVGID_4_);}
</style>
<g>
	<path class="st0" d="M105.6,115.7c-7.2,0-12.7,0-12.7,0L73,96.8v0l-30.2,23.8c9.5,12.8,24.6,22.4,33.1,27.1
		c12.4-6.7,25.1-15.2,35.4-30.4c1.1-1.6,2.1-3.4,3-5.2C111.6,114.3,108.5,115.7,105.6,115.7z"/>
	<linearGradient id="SVGID_1_" gradientUnits="userSpaceOnUse" x1="14.1645" y1="91.253" x2="136.57" y2="91.253">
		<stop  offset="0" style="stop-color:#7ACEFD"/>
		<stop  offset="1" style="stop-color:#011A5B"/>
	</linearGradient>
	<path class="st1" d="M135.1,41.7c-27.9-9.3-58.5-24.5-58.5-24.5c-32.1,16.8-62,24.8-62,24.8s-0.4,13.4-0.4,24.1
		c0,10.7-1.4,32.3,10,54.5c14.5,28.2,51.6,44.8,51.6,44.8c20.9-10.5,36.3-21.3,48.4-39.3c10.8-15.9,12.3-36.8,12.3-52.2
		C136.6,58.5,135.1,41.7,135.1,41.7z M119.4,122.8c-11.5,17-25.8,27-43.6,36.1c-9-4.6-35.2-19.4-46.3-41c-9.8-19-9.6-37.9-9.5-49.2
		c0-1.2,0-2.3,0-3.3c0-6.5,0.1-14.2,0.2-19.1c9.9-3,32.2-10.4,56.4-22.7c8.3,4,30.7,14.5,52.9,22.3c0.4,6.1,1.1,17.3,1.1,27.7
		C130.7,87.5,129.5,107.9,119.4,122.8z"/>
	<linearGradient id="SVGID_2_" gradientUnits="userSpaceOnUse" x1="39.6508" y1="86.2097" x2="62.4912" y2="86.2097">
		<stop  offset="0" style="stop-color:#2D80F3"/>
		<stop  offset="1" style="stop-color:#0A3591"/>
	</linearGradient>
	<polygon class="st2" points="76.9,56.6 64.2,68.4 56.6,68.4 56.6,104 44.2,115.8 44.2,68.4 30.5,68.4 30.5,56.6 	"/>
	<linearGradient id="SVGID_3_" gradientUnits="userSpaceOnUse" x1="70.0094" y1="48.1417" x2="118.4667" y2="111.5976">
		<stop  offset="0" style="stop-color:#EBEBEB"/>
		<stop  offset="1" style="stop-color:#8C8C8C"/>
	</linearGradient>
	<path class="st3" d="M73,64.7l8.2-8.1c0,0,9.8,0,18.3,0s14.7,3.2,17.7,9.2s2.1,14.9-4.1,19.4c0,0,8.1,3.6,8.1,12.7
		s-8.5,17.9-15.7,17.9s-12.7,0-12.7,0L73,96.8V64.7z M85,68.8v10.6h16.8c3.1,0,5.7-2.4,5.7-5.3v0c0-2.9-2.6-5.3-5.7-5.3H85z
		 M106.7,94c-1-1-2.4-1.5-4-1.5H85.9v5l5.8,5.6h11c3.1,0,5.7-2.4,5.7-5.3C108.4,96.3,107.8,95,106.7,94z"/>
	<polygon class="st4" points="58.7,125.6 62.5,122.1 75.4,133.7 88.7,122.1 92.4,126.1 75.5,141 	"/>
	<g>
		<rect x="70.8" y="116.5" class="st5" width="3.9" height="3.9"/>
		<rect x="70.8" y="111" class="st5" width="3.9" height="3.9"/>
		<rect x="76.3" y="116.5" class="st5" width="3.9" height="3.9"/>
		<rect x="76.3" y="111" class="st5" width="3.9" height="3.9"/>
	</g>
	<linearGradient id="SVGID_4_" gradientUnits="userSpaceOnUse" x1="20.0264" y1="91.253" x2="130.703" y2="91.253">
		<stop  offset="0" style="stop-color:#01125B"/>
		<stop  offset="1" style="stop-color:#2C82D4"/>
	</linearGradient>
	<path class="st6" d="M129.6,45.8c-22.1-7.8-44.5-18.3-52.9-22.3C52.5,35.9,30.2,43.3,20.3,46.3c-0.1,5-0.2,12.6-0.2,19.1
		c0,1,0,2.1,0,3.3c-0.1,11.3-0.3,30.1,9.5,49.2c11.1,21.6,37.3,36.5,46.3,41c17.7-9.1,32-19.1,43.6-36.1
		c10.1-14.9,11.3-35.3,11.3-49.3C130.7,63.1,130,52,129.6,45.8z M116,120.5c-11.5,16.9-26,26.4-40.2,33.8c-9.4-5-32.7-19-42.7-38.3
		c-9.3-18.2-9.1-36.4-9-47.3c0-1.2,0-2.3,0-3.3c0-5.3,0.1-11.3,0.2-16.1c11.4-3.6,31-10.5,52.4-21.2c9.3,4.4,28.9,13.5,48.9,20.7
		c0.4,6.2,0.9,15.8,0.9,24.7C126.6,87,125.5,106.5,116,120.5z"/>
</g>
</svg>
